<?xml version="1.0" standalone="no"?>
<!DOCTYPE svg PUBLIC "-//W3C//DTD SVG 20010904//EN"
 "http://www.w3.org/TR/2001/REC-SVG-20010904/DTD/svg10.dtd">
<svg version="1.0" xmlns="http://www.w3.org/2000/svg"
 width="279.000000pt" height="298.000000pt" viewBox="0 0 279.000000 298.000000"
 preserveAspectRatio="xMidYMid meet">

<g transform="translate(0.000000,298.000000) scale(0.100000,-0.100000)"
fill="#000000" stroke="none">
<path d="M223 2877 c-23 -56 -38 -106 -33 -111 4 -4 4 -22 -2 -38 -6 -17 -7
-33 -2 -38 5 -4 405 -139 889 -300 484 -161 886 -295 894 -298 9 -3 12 -1 7 6
-4 7 34 39 99 84 58 40 105 75 105 79 0 3 -55 26 -122 51 l-123 45 -115 -78
-115 -79 -157 57 c-87 32 -158 61 -158 65 0 3 48 38 106 78 58 40 102 76 97
80 -4 5 -62 29 -128 54 -97 36 -123 42 -137 33 -10 -7 -62 -42 -117 -79 l-98
-68 -149 56 c-82 30 -153 59 -157 64 -5 4 39 41 97 81 58 40 103 76 99 80 -9
8 -221 89 -234 89 -5 0 -58 -34 -118 -75 -60 -41 -113 -75 -117 -75 -16 0
-314 113 -314 119 0 3 50 40 111 81 l110 74 -73 28 c-40 16 -80 30 -88 33 -11
4 -26 -21 -57 -98z"/>
<path d="M2402 2063 c-99 -68 -111 -79 -93 -87 24 -10 24 -10 11 -54 -8 -31
-5 -40 54 -125 35 -51 71 -104 81 -119 l17 -28 -174 0 -175 0 -73 110 -73 110
-139 0 -139 0 65 -94 c37 -52 69 -102 72 -110 5 -14 -14 -16 -164 -16 l-171 0
-72 106 c-40 58 -77 108 -84 110 -6 3 -70 3 -143 2 l-132 -3 53 -80 c30 -44
62 -92 71 -107 l18 -28 -174 0 -175 0 -73 110 -73 110 -133 0 c-74 0 -134 -2
-134 -5 0 -3 29 -47 63 -98 35 -50 67 -98 71 -104 6 -10 -31 -13 -167 -13
l-174 0 -73 110 c-56 85 -78 110 -95 110 -21 0 -23 -5 -31 -112 -4 -62 -8
-441 -9 -843 l0 -730 24 -42 c32 -56 84 -90 152 -103 37 -7 450 -9 1200 -8
1077 3 1146 4 1184 21 53 24 103 72 126 122 18 38 19 84 19 923 0 741 2 888
14 917 11 26 12 36 3 43 -14 10 -217 82 -232 82 -5 0 -61 -35 -123 -77z"/>
</g>
</svg>
